<svg xmlns="http://www.w3.org/2000/svg" viewBox="0 0 2055.26 663.73"><defs><style>.cls-1{isolation:isolate;}.cls-2{mix-blend-mode:color-dodge;}.cls-3{fill:none;stroke:#402417;stroke-miterlimit:10;stroke-width:6px;}.cls-4{font-size:60.03px;}.cls-4,.cls-5{fill:#402417;font-family:Poppins-SemiBold, Poppins;font-weight:600;}.cls-5{font-size:123.02px;letter-spacing:0.12em;}</style></defs><g class="cls-1"><g id="Camada_2" data-name="Camada 2"><g id="Camada_4" data-name="Camada 4"><g class="cls-2"><circle class="cls-3" cx="565.05" cy="469.65" r="11.4"/><path class="cls-3" d="M477.55,511.91a132.9,132.9,0,1,1,31.06-31.06L656.19,628.43l-31.06,31.06L509.28,543.64C439.71,597.9,339,593.05,275,529.06a177.31,177.31,0,1,1,294.11-70.78"/></g><g class="cls-2"><text class="cls-4" transform="translate(215.51 545.65) rotate(-125.92)"> </text><text class="cls-4" transform="translate(204.25 530.12) rotate(-119.67)">•</text><text class="cls-4" transform="matrix(-0.4, -0.92, 0.92, -0.4, 189.22, 502.38)"> </text><text class="cls-4" transform="matrix(-0.27, -0.96, 0.96, -0.27, 181.34, 485.08)">P</text><text class="cls-4" transform="translate(170.76 444.71) rotate(-97.03)">r</text><text class="cls-4" transform="translate(166.93 414.37) rotate(-87.94)">o</text><text class="cls-4" transform="translate(169.06 370.62) rotate(-77.42)">c</text><text class="cls-4" transform="translate(178.68 329.29) rotate(-66.69)">u</text><text class="cls-4" transform="matrix(0.54, -0.84, 0.84, 0.54, 197.47, 288.34)">r</text><text class="cls-4" transform="translate(213.8 262.54) rotate(-47.96)">a</text><text class="cls-4" transform="translate(245.82 229.03) rotate(-40)"> </text><text class="cls-4" transform="matrix(0.84, -0.54, 0.54, 0.84, 260.23, 216.59)">T</text><text class="cls-4" transform="translate(293.59 196.01) rotate(-24.17)">r</text><text class="cls-4" transform="matrix(0.97, -0.26, 0.26, 0.97, 321.41, 183.34)">a</text><text class="cls-4" transform="matrix(1, -0.02, 0.02, 1, 365.4, 170.97)">m</text><text class="cls-4" transform="matrix(0.98, 0.21, -0.21, 0.98, 433.11, 171.34)">p</text><text class="cls-4" transform="translate(477.85 181.67) rotate(23.13)">o</text><text class="cls-4" transform="matrix(0.84, 0.54, -0.54, 0.84, 517.93, 199.85)">•</text><text class="cls-4" transform="translate(544.18 217.29) rotate(38.65)"> </text></g><text class="cls-5" transform="translate(658.04 430.93)">• Procura Trampo•</text></g></g></g></svg>