<svg xmlns="http://www.w3.org/2000/svg" viewBox="0 0 1351.49 1358.27"><defs><style>.cls-1{isolation:isolate;}.cls-2{mix-blend-mode:color-dodge;}.cls-3{fill:none;stroke:#402417;stroke-miterlimit:10;stroke-width:6px;}.cls-4{font-size:123.24px;fill:#402417;font-family:Poppins-SemiBold, Poppins;font-weight:600;}</style></defs><g class="cls-1"><g id="Camada_2" data-name="Camada 2"><g id="Camada_4" data-name="Camada 4"><g class="cls-2"><circle class="cls-3" cx="1160.12" cy="964.26" r="23.41"/><path class="cls-3" d="M980.48,1051c-106.58,76.19-255.68,66.44-351.38-29.26-106.56-106.56-106.56-279.33,0-385.89s279.33-106.56,385.89,0c95.7,95.7,105.45,244.8,29.26,351.38l303,303L1283.48,1354l-237.86-237.86c-142.83,111.41-349.62,101.44-481-29.93-142.17-142.17-142.17-372.66,0-514.83s372.66-142.16,514.83,0c100,100,129.63,243.61,89,369.5"/></g><g class="cls-2"><text class="cls-4" transform="translate(442.4 1120.23) rotate(-125.91)"> </text><text class="cls-4" transform="translate(419.29 1088.34) rotate(-119.66)">•</text><text class="cls-4" transform="translate(388.47 1031.41) rotate(-113.39)"> </text><text class="cls-4" transform="translate(372.28 995.86) rotate(-105.88)">P</text><text class="cls-4" transform="matrix(-0.12, -0.99, 0.99, -0.12, 350.57, 913.01)">r</text><text class="cls-4" transform="translate(342.72 850.72) rotate(-87.93)">o</text><text class="cls-4" transform="translate(347.1 760.89) rotate(-77.41)">c</text><text class="cls-4" transform="translate(366.85 676.08) rotate(-66.69)">u</text><text class="cls-4" transform="matrix(0.54, -0.84, 0.84, 0.54, 405.43, 592)">r</text><text class="cls-4" transform="translate(438.95 539.03) rotate(-47.96)">a</text><text class="cls-4" transform="translate(504.67 470.26) rotate(-40)"> </text><text class="cls-4" transform="translate(534.3 444.68) rotate(-32.77)">T</text><text class="cls-4" transform="translate(602.74 402.45) rotate(-24.17)">r</text><text class="cls-4" transform="translate(659.82 376.45) rotate(-14.84)">a</text><text class="cls-4" transform="translate(750.17 351.03) rotate(-1.28)">m</text><text class="cls-4" transform="matrix(0.98, 0.21, -0.21, 0.98, 889.19, 351.78)">p</text><text class="cls-4" transform="translate(981.04 372.98) rotate(23.12)">o</text><text class="cls-4" transform="matrix(0.84, 0.54, -0.54, 0.84, 1063.3, 410.27)">•</text><text class="cls-4" transform="matrix(0.78, 0.62, -0.62, 0.78, 1117.2, 446.06)"> </text></g></g></g></g></svg>